<?xml version="1.0" encoding="UTF-8" standalone="no"?>
<!-- Created with Inkscape (http://www.inkscape.org/) -->

<svg
   xmlns:dc="http://purl.org/dc/elements/1.1/"
   xmlns:cc="http://creativecommons.org/ns#"
   xmlns:rdf="http://www.w3.org/1999/02/22-rdf-syntax-ns#"
   xmlns:svg="http://www.w3.org/2000/svg"
   xmlns="http://www.w3.org/2000/svg"
   xmlns:sodipodi="http://sodipodi.sourceforge.net/DTD/sodipodi-0.dtd"
   xmlns:inkscape="http://www.inkscape.org/namespaces/inkscape"
   width="48"
   height="48"
   id="svg2"
   version="1.1"
   inkscape:version="0.48.1 "
   sodipodi:docname="de.svg">
  <defs
     id="defs4">
    <clipPath
       id="clipPath3007"
       clipPathUnits="userSpaceOnUse">
      <path
         id="path3009"
         d="m 0,595.276 841.89,0 L 841.89,0 0,0 0,595.276 z"
         inkscape:connector-curvature="0" />
    </clipPath>
  </defs>
  <sodipodi:namedview
     id="base"
     pagecolor="#ffffff"
     bordercolor="#666666"
     borderopacity="1.0"
     inkscape:pageopacity="0.0"
     inkscape:pageshadow="2"
     inkscape:zoom="5.6"
     inkscape:cx="52.051812"
     inkscape:cy="21.802314"
     inkscape:document-units="px"
     inkscape:current-layer="layer1"
     showgrid="false"
     inkscape:window-width="1680"
     inkscape:window-height="988"
     inkscape:window-x="-8"
     inkscape:window-y="-8"
     inkscape:window-maximized="1" />
  <metadata
     id="metadata7">
    <rdf:RDF>
      <cc:Work
         rdf:about="">
        <dc:format>image/svg+xml</dc:format>
        <dc:type
           rdf:resource="http://purl.org/dc/dcmitype/StillImage" />
        <dc:title></dc:title>
      </cc:Work>
    </rdf:RDF>
  </metadata>
  <g
     inkscape:label="Layer 1"
     inkscape:groupmode="layer"
     id="layer1"
     transform="translate(0,-1004.3622)">
    <g
       transform="matrix(0.33866615,0,0,-0.34583628,-78.125269,1181.3468)"
       inkscape:label="Logo_CMYK-5cm"
       id="g2993"
       inkscape:export-filename="D:\src\zm\icons\de.png"
       inkscape:export-xdpi="90"
       inkscape:export-ydpi="90">
      <g
         transform="translate(230.7632,476.4482)"
         id="g2995">
        <path
           id="path2997"
           style="fill:#e31e2d;fill-opacity:1;fill-rule:nonzero;stroke:none"
           d="m 0,0 -0.078,35.309 36.067,0 L 0,0 z"
           inkscape:connector-curvature="0" />
      </g>
      <g
         transform="translate(230.9507,372.9644)"
         id="g2999">
        <path
           id="path3001"
           style="fill:#6c7276;fill-opacity:1;fill-rule:nonzero;stroke:none"
           d="m 0,0 -0.188,103.484 35.99,35.309 105.665,0.001 L 141.467,0 0,0 z"
           inkscape:connector-curvature="0" />
      </g>
      <g
         id="g3003">
        <g
           clip-path="url(#clipPath3007)"
           id="g3005">
          <g
             transform="translate(338.4629,413.1113)"
             id="g3011">
            <path
               id="path3013"
               style="fill:#ffffff;fill-opacity:1;fill-rule:nonzero;stroke:none"
               d="m 0,0 c -8.665,-10.337 -21.855,-16.944 -36.569,-16.944 -26.099,0 -47.259,20.76 -47.259,46.369 0,25.608 21.16,46.366 47.259,46.366 25.859,0 46.865,-20.374 47.256,-45.652 0.068,-0.93 0.002,-1.872 -0.203,-2.782 C 10.197,25.974 9.615,24.81 8.837,23.864 7.375,22.033 5.064,20.778 1.902,20.778 l -52.061,0.005 c -11.746,0 -11.744,17.289 0.002,17.289 l 41.896,-0.003 c -3.75,11.839 -15.005,20.434 -28.308,20.434 -16.369,0 -29.639,-13.019 -29.639,-29.078 0,-16.063 13.27,-29.08 29.639,-29.08 9.235,0 17.508,4.134 22.959,10.635 C -6.149,19.881 7.46,8.9 0,0"
               inkscape:connector-curvature="0" />
          </g>
        </g>
      </g>
    </g>
  </g>
</svg>
